<svg id="Layer_1" data-name="Layer 1" xmlns="http://www.w3.org/2000/svg" width="8in" height="8in" viewBox="0 0 576 576"><defs><style>.cls-3{fill:#a90533}.cls-4{fill:#fff}</style><clipPath id="clip-path"><path fill="none" d="M.32-.68h575.3v576.3H.32z"/></clipPath></defs><g clip-path="url(#clip-path)"><path class="cls-3" d="M-2.45-2.23H578.5v581H-2.45z"/><path class="cls-4" d="M98.58 78.87v189.87c0 154.12 168.27 234.62 189.87 235.3 21.6-.68 190-81.18 190-235.3V78.87z"/><path class="cls-4" d="M117.64 99.31v170.81c0 138.66 151.38 211.09 170.81 211.7 19.43-.61 170.9-73 170.9-211.7V99.31z"/><path class="cls-3" d="M117.36 203.51V99.36h342.09v104.2z"/><path d="M441.26 349.38L288.84 203.8 136 350c13.43 28.43 32.7 52.36 53.34 71.68l99.5-102.6 99 102.36c20.72-19.44 40.04-43.44 53.42-72.06z" fill="#004785"/><path class="cls-4" d="M174.75 341.39a33.65 33.65 0 1 1 33.63 33.67 33.61 33.61 0 0 1-33.63-33.67zM255.39 269.89A33.65 33.65 0 1 1 289 303.55a33.66 33.66 0 0 1-33.61-33.66zM371 375.06a33.65 33.65 0 1 1 33.65-33.67A33.59 33.59 0 0 1 371 375.06z"/></g></svg>